# xmcd
#
# Track frame offsets:
#	183
#	11883
#	24918
#	35235
#	45575
#	58023
#	68098
#	80628
#	97840
#	111145
#	124608
#	136605
#	149133
#	164658
#	174693
#	185310
#
# Disc length: 2629 seconds
#
# Revision: 1
# Processed by: cddbd v1.5PL3 Copyright (c) Steve Scherf et al.
# Submitted via: audiograbber 1.82.01
#
DISCID=de0a4310
DTITLE=Bobby Bare and Don Williams - Country Superstars
DYEAR=1900
DGENRE=
TTITLE0=Music City U.S.A.
TTITLE1=High'n'Dry
TTITLE2=Crazy Arms
TTITLE3=West Verginia Woman
TTITLE4=City Boy Country Born
TTITLE5=What Am I Gonna Do
TTITLE6=The Year When Clayton Delaney Died
TTITLE7=Sylvia's Mother
TTITLE8=Ruby Tuesday
TTITLE9=Where Do I Go From Here
TTITLE10=Follow Me Bach To Louiseville
TTITLE11=There's Never Been A Time
TTITLE12=Tears
TTITLE13=Take My Hand For A While
TTITLE14=(There's) Always Something There To Remind Me
TTITLE15=On Her Way To Being A Woman
EXTD=
EXTT0=
EXTT1=
EXTT2=
EXTT3=
EXTT4=
EXTT5=
EXTT6=
EXTT7=
EXTT8=
EXTT9=
EXTT10=
EXTT11=
EXTT12=
EXTT13=
EXTT14=
EXTT15=
PLAYORDER=
